<?xml version="1.0" encoding="UTF-8"?> <svg xmlns="http://www.w3.org/2000/svg" version="1.2" viewBox="0 0 683 196" width="683" height="196"><title>Logo-ai-svgs-svg</title><style> .s0 { fill: #030a6f } .s1 { fill: #ed3604 } .s2 { fill: #441b03 } .s3 { fill: #030a6b } </style><path id="Layer" class="s0" d="m161.7 165.6c-7.5 7.2-16.6 11.7-26.2 15.3-10.3 3.8-21.2 5.7-32.3 5.5-14-0.3-27.3-3.5-39.8-9.9-20.8-10.7-35.3-27.2-43.8-48.7-4.6-11.5-6.1-23.7-5.5-36.2 0.8-20.5 8.2-38.6 21.4-53.6 15.9-18.2 36.5-28.5 61.1-30.3-3.1 3.4-6.5 6.5-9.8 9.7-15.8 15.2-22.1 34.1-20.8 56 0.2 4.1 0.1 8 0.7 11.7 2.8 17.3 10.6 32.4 22.2 45.3 5.2 5.8 11.5 10.6 17.4 16.2 0.4 0.7 0.7 1.2 1.1 1.5 14.5 10.3 30.3 16.6 48.4 16.7 1.9 0 3.9 0.6 5.9 0.8z"></path><path id="Layer" class="s1" d="m66 73.1c-1.4-21.7 4.9-40.5 20.7-55.7 3.3-3.2 6.7-6.3 10.2-9.7 29.8-2.9 55 6.8 75.3 28.1 13.3 13.9 20.6 30.9 22.8 50.3 1.6 14.1-0.9 27.5-4.8 40.9-0.1 0.4-0.4 0.7-1.1 1-1.7-4-3-7.9-4.3-11.9-7-21.6-22.1-35.5-42.8-44.4-8.8-4.3-17.9-6.3-27.3-7-16.9-1.2-33.1 2.1-48.7 8.4z"></path><path id="Layer" class="s2" d="m142.4 71.8c20.4 8.7 35.5 22.6 42.5 44.3 1.3 4 2.6 7.9 4.1 12.1-5.2 15.2-14.4 27.4-27 37.4-2.3-0.2-4.3-0.7-6.3-0.7-18-0.1-33.9-6.4-48.4-16.7-0.4-0.3-0.7-0.8-0.9-1.7 1.1-1.2 2.4-1.7 3.1-2.5 4.3-4.8 8.7-9.6 12.7-14.6 13.7-16.9 20.7-35.9 20.2-57.6z"></path><g id="Layer"><g id="Layer"><path id="Layer" fill-rule="evenodd" class="s3" d="m238.9 136.3h-12.6c-0.2 0-0.4 0.1-0.5 0.4l-2 5.6c-0.1 0.2-0.3 0.4-0.5 0.4h-5.9c-0.4 0-0.6-0.4-0.5-0.7l11.7-32.5c0.1-0.2 0.3-0.4 0.5-0.4h7.1c0.2 0 0.4 0.1 0.5 0.4l11.7 32.5c0.1 0.4-0.1 0.7-0.5 0.7h-5.9c-0.2 0-0.4-0.1-0.5-0.4l-2-5.6c-0.2-0.3-0.4-0.4-0.6-0.4zm-1.7-6.2l-4.1-11.8c-0.2-0.5-0.9-0.5-1 0l-4.1 11.8c-0.1 0.4 0.1 0.7 0.5 0.7h8.2c0.4 0.1 0.6-0.3 0.5-0.7z"></path><path id="Layer" class="s3" d="m260.4 138.3h9.9c0.3 0 0.6 0.2 0.6 0.6v4.2c0 0.3-0.2 0.6-0.6 0.6h-16.7c-0.3 0-0.6-0.2-0.6-0.6v-32.4c0-0.3 0.2-0.6 0.6-0.6h5.6c0.3 0 0.6 0.2 0.6 0.6v27.1c0 0.3 0.3 0.5 0.6 0.5z"></path><path id="Layer" fill-rule="evenodd" class="s3" d="m303.7 143.4l-7.1-12.5c-0.1-0.2-0.3-0.3-0.5-0.3h-2.3c-0.3 0-0.6 0.2-0.6 0.6v12c0 0.3-0.2 0.6-0.6 0.6h-5.6c-0.3 0-0.6-0.2-0.6-0.6v-32.5c0-0.3 0.2-0.6 0.6-0.6h12c2.6 0 4.8 0.5 6.6 1.4 1.8 0.9 3.2 2.1 4.1 3.7 0.9 1.6 1.4 3.3 1.4 5.2 0 2.2-0.6 4.2-1.9 6-1.2 1.6-2.8 2.8-5 3.5-0.3 0.1-0.5 0.5-0.3 0.8l7.2 12.2c0.2 0.4 0 0.8-0.5 0.8h-6.5c-0.1-0.1-0.3-0.2-0.4-0.3zm-10.4-18.4c0 0.3 0.2 0.6 0.6 0.6h5.1c1.8 0 3.2-0.4 4.1-1.3 0.9-0.9 1.3-2.1 1.3-3.7 0-1.5-0.4-2.7-1.3-3.6-0.9-0.8-2.3-1.3-4.1-1.3h-5.1c-0.3 0-0.6 0.2-0.6 0.6z"></path><path id="Layer" fill-rule="evenodd" class="s3" d="m337.6 137.3h-12.6c-0.2 0-0.4 0.1-0.5 0.4l-2 5.6c-0.1 0.2-0.3 0.4-0.5 0.4h-5.9c-0.4 0-0.6-0.4-0.5-0.7l11.7-32.5c0.1-0.2 0.3-0.4 0.5-0.4h7.1c0.2 0 0.4 0.1 0.5 0.4l11.6 32.4c0.1 0.4-0.1 0.7-0.5 0.7h-5.9c-0.2 0-0.4-0.1-0.5-0.4l-2-5.6c-0.1-0.2-0.3-0.3-0.5-0.3zm-1.7-6.2l-4.1-11.8c-0.2-0.5-0.9-0.5-1 0l-4.1 11.8c-0.1 0.4 0.1 0.7 0.5 0.7h8.2c0.3 0.1 0.6-0.3 0.5-0.7z"></path><path id="Layer" class="s3" d="m388.3 110.7v32.4c0 0.3-0.2 0.6-0.6 0.6h-5.6c-0.3 0-0.6-0.2-0.6-0.6v-18.5c0-0.6-0.8-0.8-1.1-0.2l-7.8 18.9c-0.1 0.2-0.3 0.3-0.5 0.3h-4.4c-0.2 0-0.4-0.1-0.5-0.3l-7.8-18.9c-0.2-0.6-1.1-0.4-1.1 0.2v18.5c0 0.3-0.2 0.6-0.6 0.6h-5.6c-0.3 0-0.6-0.2-0.6-0.6v-32.4c0-0.3 0.2-0.6 0.6-0.6h6.7c0.2 0 0.4 0.1 0.5 0.3l10 23.4c0.2 0.4 0.8 0.4 1 0l10-23.4c0.1-0.2 0.3-0.3 0.5-0.3h6.7c0.6 0 0.8 0.3 0.8 0.6z"></path><path id="Layer" class="s3" d="m394.9 110.7c0-0.3 0.3-0.6 0.6-0.6h5.6c0.3 0 0.6 0.3 0.6 0.6v32.4c0 0.3-0.3 0.6-0.6 0.6h-5.6c-0.3 0-0.6-0.3-0.6-0.6z"></path><path id="Layer" class="s3" d="m415.6 138.3h9.9c0.3 0 0.6 0.2 0.6 0.6v4.2c0 0.3-0.2 0.6-0.6 0.6h-16.7c-0.3 0-0.6-0.2-0.6-0.6v-32.4c0-0.3 0.2-0.6 0.6-0.6h5.6c0.3 0 0.6 0.2 0.6 0.6v27.1c0 0.3 0.3 0.5 0.6 0.5z"></path><path id="Layer" fill-rule="evenodd" class="s3" d="m462 137.3h-12.6c-0.2 0-0.4 0.1-0.5 0.4l-2 5.6c-0.1 0.2-0.3 0.4-0.5 0.4h-5.9c-0.4 0-0.6-0.4-0.5-0.7l11.7-32.5c0.1-0.2 0.3-0.4 0.5-0.4h7.1c0.2 0 0.4 0.1 0.5 0.4l11.7 32.5c0.1 0.4-0.1 0.7-0.5 0.7h-6c-0.2 0-0.4-0.1-0.5-0.4l-2-5.6c-0.1-0.3-0.3-0.4-0.5-0.4zm-1.7-6.2l-4.1-11.8c-0.2-0.5-0.9-0.5-1 0l-4.1 11.8c-0.1 0.4 0.1 0.7 0.5 0.7h8.2c0.3 0.1 0.6-0.3 0.5-0.7z"></path><path id="Layer" class="s3" d="m483.5 138.3h9.9c0.3 0 0.6 0.2 0.6 0.6v4.2c0 0.3-0.2 0.6-0.6 0.6h-16.7c-0.3 0-0.6-0.2-0.6-0.6v-32.4c0-0.3 0.2-0.6 0.6-0.6h5.6c0.3 0 0.6 0.2 0.6 0.6v27.1c0 0.3 0.3 0.5 0.6 0.5z"></path><path id="Layer" fill-rule="evenodd" class="s3" d="m530 137.3h-12.6c-0.2 0-0.4 0.1-0.5 0.4l-2 5.6c-0.1 0.2-0.3 0.4-0.5 0.4h-5.9c-0.4 0-0.6-0.4-0.5-0.7l11.7-32.5c0.1-0.2 0.3-0.4 0.5-0.4h7.1c0.2 0 0.4 0.1 0.5 0.4l11.7 32.5c0.1 0.4-0.1 0.7-0.5 0.7h-6c-0.2 0-0.4-0.1-0.5-0.4l-2-5.6c-0.1-0.3-0.3-0.4-0.5-0.4zm-1.7-6.2l-4.1-11.8c-0.2-0.5-0.9-0.5-1 0l-4.1 11.8c-0.1 0.4 0.1 0.7 0.5 0.7h8.2c0.3 0.1 0.6-0.3 0.5-0.7z"></path><path id="Layer" fill-rule="evenodd" class="s3" d="m567.9 129.3c1.2 1.5 1.8 3.3 1.8 5.3 0 1.8-0.4 3.4-1.3 4.7-0.9 1.4-2.2 2.4-3.8 3.2-1.7 0.8-3.6 1.2-5.9 1.2h-13.9c-0.3 0-0.6-0.2-0.6-0.6v-32.4c0-0.3 0.2-0.6 0.6-0.6h13.2c2.3 0 4.2 0.4 5.9 1.1 1.6 0.7 2.9 1.8 3.7 3.1 0.8 1.3 1.3 2.8 1.3 4.5 0 2-0.5 3.6-1.6 4.9-0.7 0.9-1.7 1.7-2.7 2.2-0.4 0.2-0.4 0.8 0.1 1 1.2 0.5 2.3 1.3 3.2 2.4zm-17-5.9c0 0.3 0.2 0.6 0.6 0.6h5.6c1.6 0 2.8-0.4 3.7-1.1 0.9-0.7 1.3-1.8 1.3-3.1 0-1.3-0.4-2.4-1.3-3.1-0.9-0.7-2.1-1.1-3.7-1.1h-5.6c-0.3 0-0.6 0.2-0.6 0.6zm10.6 13.6c0.9-0.8 1.4-1.9 1.4-3.3 0-1.4-0.5-2.6-1.4-3.4q-1.5-1.2-3.9-1.2h-6.1c-0.3 0-0.6 0.2-0.6 0.6v7.9c0 0.3 0.2 0.6 0.6 0.6h6.2c1.6 0 2.9-0.4 3.8-1.2z"></path><path id="Layer" class="s3" d="m601.3 110.9l-10.9 20.9c0 0.1-0.1 0.2-0.1 0.3v11c0 0.3-0.2 0.6-0.6 0.6h-5.6c-0.3 0-0.6-0.2-0.6-0.6v-11c0-0.1 0-0.2-0.1-0.3l-10.9-20.9c-0.2-0.4 0.1-0.8 0.5-0.8h6.3c0.2 0 0.4 0.1 0.5 0.3l6.6 13.9c0.2 0.4 0.8 0.4 1 0l6.5-13.9c0.1-0.2 0.3-0.3 0.5-0.3h6.2c0.6 0 0.9 0.5 0.7 0.8z"></path><path id="Layer" fill-rule="evenodd" class="s3" d="m620.2 137.3h-12.6c-0.2 0-0.4 0.1-0.5 0.4l-2 5.6c-0.1 0.2-0.3 0.4-0.5 0.4h-5.9c-0.4 0-0.6-0.4-0.5-0.7l11.7-32.5c0.1-0.2 0.3-0.4 0.5-0.4h7.1c0.2 0 0.4 0.1 0.5 0.4l11.7 32.5c0.1 0.4-0.1 0.7-0.5 0.7h-5.9c-0.2 0-0.4-0.1-0.5-0.4l-2-5.6c-0.2-0.3-0.4-0.4-0.6-0.4zm-1.7-6.2l-4.1-11.8c-0.2-0.5-0.9-0.5-1 0l-4.1 11.8c-0.1 0.4 0.1 0.7 0.5 0.7h8.2c0.3 0.1 0.6-0.3 0.5-0.7z"></path><path id="Layer" fill-rule="evenodd" class="s3" d="m655.4 112.2c2.7 1.4 4.7 3.3 6.2 5.9 1.5 2.5 2.2 5.5 2.2 8.9 0 3.4-0.7 6.3-2.2 8.8-1.5 2.5-3.5 4.5-6.2 5.8q-4 2.1-9.3 2.1h-11.2c-0.3 0-0.6-0.2-0.6-0.6v-32.4c0-0.3 0.2-0.6 0.6-0.6h11.2q5.3 0 9.3 2.1zm-1.4 22.8c1.9-1.9 2.9-4.6 2.9-8.1 0-3.5-1-6.2-2.9-8.2-1.9-2-4.6-3-8.2-3h-4.2c-0.3 0-0.6 0.2-0.6 0.6v21c0 0.3 0.2 0.6 0.6 0.6h4.2c3.6 0 6.3-0.9 8.2-2.9z"></path></g></g></svg> 